<?xml version="1.0" encoding="UTF-8" standalone="no"?>
<!-- Created with Inkscape (http://www.inkscape.org/) -->

<svg
   version="1.1"
   id="svg2"
   width="558.4267"
   height="102.29333"
   viewBox="0 0 558.4267 102.29333"
   sodipodi:docname="UCDavis_CAES_logo_RGB_vector.eps"
   xmlns:inkscape="http://www.inkscape.org/namespaces/inkscape"
   xmlns:sodipodi="http://sodipodi.sourceforge.net/DTD/sodipodi-0.dtd"
   xmlns="http://www.w3.org/2000/svg"
   xmlns:svg="http://www.w3.org/2000/svg">
  <defs
     id="defs6" />
  <sodipodi:namedview
     id="namedview4"
     pagecolor="#ffffff"
     bordercolor="#000000"
     borderopacity="0.25"
     inkscape:showpageshadow="2"
     inkscape:pageopacity="0.0"
     inkscape:pagecheckerboard="0"
     inkscape:deskcolor="#d1d1d1" />
  <g
     id="g8"
     inkscape:groupmode="layer"
     inkscape:label="ink_ext_XXXXXX"
     transform="matrix(1.3333333,0,0,-1.3333333,0,102.29333)">
    <g
       id="g10"
       transform="scale(0.1)">
      <path
         d="m 512.926,475.973 c 4.773,85.125 -11.188,166.527 -43.278,239.535 -6.875,15.668 -14.769,30.777 -23.089,45.59 L 0,761.098 V 0.96875 H 128.645 C 339.629,58.5938 499.926,245.57 512.926,475.973"
         style="fill:#c3941a;fill-opacity:1;fill-rule:nonzero;stroke:none"
         id="path12" />
      <path
         d="M 498.383,761.105 C 544.707,697.008 578.656,622.484 595.508,539.965 637.395,334.73 564.188,132.816 420.238,0.96875 h 339.93 V 761.105 H 498.383"
         style="fill:#1c2a4f;fill-opacity:1;fill-rule:nonzero;stroke:none"
         id="path14" />
      <path
         d="m 2317.53,510.293 27.18,71.801 4.7,-4.082 c 16.66,-13.586 39.27,-25.149 60.59,-25.614 19.09,-0.441 28.4,4.645 25.87,20.797 -1.87,12.051 -15.49,14.18 -24.01,15.848 l -18.65,3.727 c -36.3,6.785 -66.83,29.183 -66.83,71.617 0,64.168 55.29,100.144 110.92,100.144 29.21,0 56.03,-7.441 81.11,-23.773 l -23.55,-63.629 c -12.94,9.316 -32.49,22.426 -57.26,23.32 -8.14,0.313 -26.8,-3.972 -20.83,-22.89 2.58,-8.063 14.13,-11.45 21.24,-13.172 l 21.08,-5.086 c 39.31,-9.164 67.78,-31.563 67.78,-77.375 0,-64.504 -55.64,-96.414 -110.89,-96.414 -32.26,0 -69.6,9.176 -98.45,24.781"
         style="fill:#c3941a;fill-opacity:1;fill-rule:nonzero;stroke:none"
         id="path16" />
      <path
         d="m 2202.84,760.121 h 94.69 V 489.57 h -94.69 v 270.551"
         style="fill:#c3941a;fill-opacity:1;fill-rule:nonzero;stroke:none"
         id="path18" />
      <path
         d="m 2096.06,760.129 h 96.98 L 2093.97,489.57 h -78.69 l -98.75,270.559 h 96.65 l 41.46,-163.274 41.42,163.274"
         style="fill:#c3941a;fill-opacity:1;fill-rule:nonzero;stroke:none"
         id="path20" />
      <path
         d="m 1827.95,682.031 v 0 c 1.72,-11.511 18.68,-94.32 18.68,-94.32 H 1809.4 Z M 1686.81,489.566 h 98.39 l 7.49,33.981 h 70.2 l 9.32,-33.981 h 98.45 l -92.15,270.555 H 1775.3 l -88.49,-270.555"
         style="fill:#c3941a;fill-opacity:1;fill-rule:nonzero;stroke:none"
         id="path22" />
      <path
         d="m 1443.53,760.129 h 96.99 c 86.56,0 152.69,-39.738 152.69,-139.191 0,-80.122 -53.88,-131.372 -129.58,-131.372 l -120.1,0.153 z m 95.33,-192.879 h 6.35 c 31.21,0 54.37,18.73 54.37,54.039 0,38.012 -20.51,59.215 -54.8,59.215 h -5.92 V 567.25"
         style="fill:#c3941a;fill-opacity:1;fill-rule:nonzero;stroke:none"
         id="path24" />
      <path
         d="m 1386.9,751.637 5.06,-44.407 c 1.18,-10.531 7.21,-35.812 -0.25,-32.425 -4.64,2.082 -8.47,13.539 -12.27,23.726 -1.93,5.172 -11.15,29.614 -13.56,31.407 -11.67,8.714 -40.74,18.554 -60.41,18.648 -59.64,0.215 -99.09,-43.785 -99.09,-121.871 0,-56.008 26.8,-123.188 95.01,-123.188 24.44,0 71.24,7.696 83.99,42.461 5.76,15.742 11.02,29.735 14.83,25.473 2.84,-3.09 -0.85,-15.695 -2.55,-22.484 -8.04,-32.223 -8.48,-42 -11.01,-43.243 -30.82,-15.496 -70.34,-20.586 -104.92,-20.586 -110,0 -147.97,64.172 -147.97,128.325 0,111.328 68.39,158.218 174.38,153.422 26.82,-1 53.65,-5.778 78.76,-15.258"
         style="fill:#c3941a;fill-opacity:1;fill-rule:nonzero;stroke:none"
         id="path26" />
      <path
         d="m 1062.16,746.703 -17.62,6.145 c -5.89,5.328 1.31,6.812 1.31,6.812 0,0 25.45,-4.726 88.86,0.656 0,0 5.5,-1.101 1.71,-5.57 l -20.82,-8.91 c -13.55,-5.914 -13.55,-2.523 -13.55,-17.375 l -0.12,-137.883 c 0,-107.844 -109.672,-105.426 -131.039,-105.426 -10.188,0 -110.793,0 -110.793,86.567 v 145.972 c 0,25.438 2.73,24.774 -5.727,27.754 l -25.445,9.539 c 0,0 -4.321,6.121 3.371,5.723 20.793,-1.047 50.894,-5.496 121.703,-0.391 0,0 6.172,-1.507 2.109,-5.961 l -21.171,-5.96 c -16.11,-7.223 -13.981,-1.692 -14.411,-18.243 l 0.512,-143.918 c 0,-35.285 18.164,-78.988 75.274,-78.988 77.737,0 78.477,67.258 78.477,82.211 l 0.13,142.559 c 0.83,13.429 -0.87,9.605 -12.76,14.687"
         style="fill:#c3941a;fill-opacity:1;fill-rule:nonzero;stroke:none"
         id="path28" />
      <path
         d="M 860.121,418.332 H 4187.25 v 11.297 H 860.121 v -11.297"
         style="fill:#c3941a;fill-opacity:1;fill-rule:nonzero;stroke:none"
         id="path30" />
      <path
         d="m 957.008,305.102 c -1.813,2.468 -3.887,4.625 -6.203,6.472 -2.313,1.856 -4.809,3.399 -7.489,4.668 -2.664,1.254 -5.461,2.207 -8.398,2.856 -2.93,0.644 -5.895,0.972 -8.895,0.972 -5.394,0 -10.32,-0.972 -14.793,-2.906 -4.453,-1.93 -8.269,-4.613 -11.429,-8.012 -3.168,-3.402 -5.637,-7.394 -7.403,-11.968 -1.75,-4.575 -2.632,-9.512 -2.632,-14.789 0,-5.403 0.882,-10.36 2.632,-14.875 1.766,-4.52 4.258,-8.415 7.485,-11.665 3.226,-3.253 7.105,-5.812 11.621,-7.656 4.516,-1.84 9.531,-2.765 15.055,-2.765 2.871,0 5.726,0.328 8.574,1.004 2.851,0.675 5.582,1.644 8.183,2.902 2.618,1.265 5.086,2.781 7.391,4.539 2.32,1.758 4.43,3.754 6.301,5.984 v -42.34 c -2.942,-0.871 -5.692,-1.71 -8.274,-2.511 -2.578,-0.782 -5.101,-1.465 -7.574,-2.02 -2.465,-0.566 -4.933,-1 -7.437,-1.32 -2.493,-0.328 -5.118,-0.488 -7.868,-0.488 -9.511,0 -18.625,1.738 -27.335,5.199 -8.715,3.457 -16.622,8.383 -23.723,14.789 -7.508,6.801 -13.027,14.535 -16.543,23.187 -3.524,8.649 -5.281,18.063 -5.281,28.204 0,9.335 1.711,18.281 5.109,26.851 3.398,8.57 8.395,16.195 14.961,22.883 3.344,3.402 7.012,6.469 11,9.203 3.988,2.723 8.203,5.047 12.633,6.961 4.418,1.894 9.015,3.355 13.773,4.348 4.75,1 9.5,1.5 14.254,1.5 5.695,0 11.188,-0.606 16.457,-1.813 5.285,-1.203 10.57,-2.883 15.848,-5.062 v -42.332"
         style="fill:#1c2a4f;fill-opacity:1;fill-rule:nonzero;stroke:none"
         id="path32" />
      <path
         d="m 1058.86,320.953 c -5.28,0 -10.25,-0.988 -14.88,-2.949 -4.63,-1.973 -8.7,-4.609 -12.19,-7.93 -3.48,-3.312 -6.25,-7.133 -8.27,-11.437 -2.02,-4.321 -3.04,-8.821 -3.04,-13.52 0,-5.863 1.02,-11.277 3.04,-16.234 2.02,-4.957 4.79,-9.235 8.27,-12.844 3.49,-3.613 7.56,-6.426 12.19,-8.449 4.63,-2.027 9.6,-3.047 14.88,-3.047 5.27,0 10.25,1.02 14.91,3.047 4.67,2.023 8.73,4.836 12.19,8.449 3.46,3.609 6.21,7.887 8.22,12.844 2.04,4.957 3.06,10.371 3.06,16.234 0,4.699 -1.02,9.199 -3.06,13.52 -2.01,4.304 -4.76,8.125 -8.22,11.437 -3.46,3.321 -7.52,5.957 -12.19,7.93 -4.66,1.961 -9.64,2.949 -14.91,2.949 m 0,34.235 c 6.51,0 12.89,-0.778 19.14,-2.34 6.25,-1.555 12.16,-3.762 17.73,-6.641 5.58,-2.871 10.72,-6.383 15.41,-10.519 4.69,-4.133 8.73,-8.801 12.1,-13.997 3.38,-5.187 6.02,-10.836 7.93,-16.945 1.9,-6.098 2.86,-12.582 2.86,-19.441 0,-11.035 -1.86,-21.149 -5.59,-30.325 -3.73,-9.187 -8.94,-17.085 -15.63,-23.679 -6.69,-6.61 -14.62,-11.75 -23.81,-15.446 -9.18,-3.691 -19.23,-5.546 -30.14,-5.546 -7.29,0 -14.19,0.828 -20.73,2.504 -6.54,1.671 -12.59,4.066 -18.14,7.179 -5.54,3.098 -10.55,6.883 -15.04,11.309 -4.5,4.433 -8.313,9.433 -11.45,15 -3.133,5.578 -5.555,11.648 -7.25,18.183 -1.703,6.543 -2.562,13.481 -2.562,20.821 0,6.859 0.96,13.343 2.859,19.441 1.91,6.109 4.566,11.758 7.973,16.945 3.402,5.196 7.43,9.864 12.1,13.997 4.66,4.136 9.79,7.648 15.36,10.519 5.57,2.879 11.48,5.086 17.73,6.641 6.26,1.562 12.63,2.34 19.15,2.34"
         style="fill:#1c2a4f;fill-opacity:1;fill-rule:nonzero;stroke:none"
         id="path34" />
      <path
         d="m 1199.66,244.719 h 42.42 v -29.93 h -77.72 v 135.91 h 35.3 v -105.98"
         style="fill:#1c2a4f;fill-opacity:1;fill-rule:nonzero;stroke:none"
         id="path36" />
      <path
         d="m 1309.1,244.719 h 42.43 v -29.93 h -77.73 v 135.91 h 35.3 v -105.98"
         style="fill:#1c2a4f;fill-opacity:1;fill-rule:nonzero;stroke:none"
         id="path38" />
      <path
         d="m 1418.54,320.773 v -22.707 h 39.86 v -29.937 h -39.86 v -23.41 h 42.07 v -29.914 h -77.37 v 135.894 h 77.37 v -29.926 h -42.07"
         style="fill:#1c2a4f;fill-opacity:1;fill-rule:nonzero;stroke:none"
         id="path40" />
      <path
         d="m 1634.66,290.668 c -0.1,-4.93 -0.32,-9.711 -0.61,-14.348 -0.3,-4.636 -0.93,-9.168 -1.9,-13.605 -0.95,-4.414 -2.34,-8.774 -4.13,-13.016 -1.79,-4.258 -4.22,-8.496 -7.26,-12.726 -3.35,-4.633 -7.08,-8.633 -11.18,-12.008 -4.11,-3.379 -8.54,-6.152 -13.3,-8.324 -4.74,-2.157 -9.76,-3.774 -15.03,-4.789 -5.3,-1.032 -10.79,-1.539 -16.47,-1.539 -10.68,0 -20.47,1.722 -29.36,5.179 -8.88,3.469 -16.53,8.352 -22.92,14.656 -6.4,6.317 -11.37,13.868 -14.93,22.676 -3.55,8.797 -5.32,18.539 -5.32,29.223 0,11.035 1.79,21.051 5.37,30.055 3.58,9.003 8.62,16.691 15.09,23.054 6.48,6.364 14.25,11.293 23.29,14.789 9.03,3.493 19.03,5.246 30.01,5.246 13.97,0 26.2,-3.16 36.7,-9.472 10.51,-6.309 18.69,-15.832 24.56,-28.555 l -33.52,-14 c -1.25,3.227 -2.8,6.156 -4.67,8.801 -1.9,2.648 -4.06,4.922 -6.52,6.828 -2.47,1.906 -5.22,3.367 -8.28,4.395 -3.05,1.027 -6.36,1.535 -9.93,1.535 -5.81,0 -10.94,-1.254 -15.33,-3.782 -4.4,-2.523 -8.08,-5.816 -11.05,-9.89 -2.96,-4.086 -5.19,-8.684 -6.68,-13.785 -1.5,-5.106 -2.25,-10.235 -2.25,-15.407 0,-5.277 0.78,-10.453 2.33,-15.535 1.56,-5.062 3.85,-9.613 6.87,-13.636 3.02,-4.02 6.77,-7.247 11.27,-9.684 4.48,-2.441 9.64,-3.656 15.45,-3.656 3.8,0 7.37,0.496 10.69,1.504 3.31,1 6.21,2.484 8.71,4.441 2.49,1.965 4.53,4.418 6.11,7.359 1.59,2.926 2.56,6.364 2.91,10.282 h -28.86 v 27.734 h 70.14"
         style="fill:#1c2a4f;fill-opacity:1;fill-rule:nonzero;stroke:none"
         id="path42" />
      <path
         d="m 1699.86,320.773 v -22.707 h 39.87 v -29.937 h -39.87 v -23.41 h 42.07 v -29.914 h -77.37 v 135.894 h 77.37 v -29.926 h -42.07"
         style="fill:#1c2a4f;fill-opacity:1;fill-rule:nonzero;stroke:none"
         id="path44" />
      <path
         d="m 1890.19,290.59 c -3.77,0 -7.31,-0.703 -10.62,-2.102 -3.32,-1.418 -6.23,-3.293 -8.7,-5.672 -2.5,-2.363 -4.47,-5.082 -5.91,-8.156 -1.45,-3.082 -2.16,-6.308 -2.16,-9.64 0,-4.207 0.71,-8.063 2.16,-11.606 1.44,-3.539 3.41,-6.598 5.91,-9.18 2.47,-2.562 5.38,-4.586 8.7,-6.031 3.31,-1.445 6.85,-2.176 10.62,-2.176 3.77,0 7.31,0.731 10.64,2.176 3.35,1.445 6.25,3.469 8.72,6.031 2.47,2.582 4.42,5.641 5.87,9.18 1.44,3.543 2.17,7.399 2.17,11.606 0,3.332 -0.73,6.558 -2.17,9.64 -1.45,3.074 -3.4,5.793 -5.87,8.156 -2.47,2.379 -5.37,4.254 -8.72,5.672 -3.33,1.399 -6.87,2.102 -10.64,2.102 m 0,24.445 c 4.65,0 9.2,-0.551 13.66,-1.664 4.47,-1.121 8.68,-2.687 12.67,-4.754 3.97,-2.039 7.65,-4.539 11,-7.504 3.34,-2.949 6.23,-6.273 8.64,-9.988 2.4,-3.719 4.28,-7.742 5.66,-12.105 1.35,-4.352 2.03,-8.977 2.03,-13.879 0,-7.883 -1.33,-15.106 -3.99,-21.653 -2.66,-6.55 -6.36,-12.199 -11.15,-16.914 -4.77,-4.703 -10.43,-8.39 -17,-11.031 -6.56,-2.637 -13.72,-3.957 -21.52,-3.957 -5.2,0 -10.13,0.586 -14.8,1.793 -4.68,1.195 -8.99,2.894 -12.95,5.137 -3.96,2.207 -7.54,4.898 -10.75,8.058 -3.2,3.172 -5.92,6.742 -8.17,10.723 -2.23,3.973 -3.96,8.308 -5.17,12.969 -1.23,4.679 -1.83,9.632 -1.83,14.875 0,4.902 0.68,9.527 2.06,13.879 1.35,4.363 3.24,8.386 5.67,12.105 2.42,3.715 5.32,7.039 8.64,9.988 3.33,2.965 6.99,5.465 10.97,7.504 3.98,2.067 8.2,3.633 12.66,4.754 4.47,1.113 9.01,1.664 13.67,1.664"
         style="fill:#1c2a4f;fill-opacity:1;fill-rule:nonzero;stroke:none"
         id="path46" />
      <path
         d="m 1985.8,290.465 v -16.211 h 27.72 v -21.371 h -27.72 v -38.094 h -25.2 v 97.031 h 55.74 v -21.355 h -30.54"
         style="fill:#1c2a4f;fill-opacity:1;fill-rule:nonzero;stroke:none"
         id="path48" />
      <path
         d="m 2164.83,308.707 h -0.34 l -14.62,-43.297 h 29.39 z m -24.73,-70.316 -9.33,-23.586 h -37.49 l 52.28,135.894 h 38.55 l 51.23,-135.894 h -37.67 l -8.89,23.586 h -48.68"
         style="fill:#1c2a4f;fill-opacity:1;fill-rule:nonzero;stroke:none"
         id="path50" />
      <path
         d="m 2397.48,290.668 c -0.12,-4.93 -0.33,-9.711 -0.61,-14.348 -0.3,-4.636 -0.93,-9.168 -1.9,-13.605 -0.96,-4.414 -2.35,-8.774 -4.14,-13.016 -1.79,-4.258 -4.21,-8.496 -7.26,-12.726 -3.34,-4.633 -7.07,-8.633 -11.17,-12.008 -4.11,-3.379 -8.54,-6.152 -13.3,-8.324 -4.74,-2.157 -9.76,-3.774 -15.04,-4.789 -5.3,-1.032 -10.78,-1.539 -16.46,-1.539 -10.69,0 -20.48,1.722 -29.36,5.179 -8.9,3.469 -16.54,8.352 -22.93,14.656 -6.39,6.317 -11.36,13.868 -14.91,22.676 -3.57,8.797 -5.33,18.539 -5.33,29.223 0,11.035 1.79,21.051 5.36,30.055 3.59,9.003 8.62,16.691 15.1,23.054 6.49,6.364 14.25,11.293 23.28,14.789 9.05,3.493 19.05,5.246 30.02,5.246 13.97,0 26.19,-3.16 36.69,-9.472 10.51,-6.309 18.69,-15.832 24.57,-28.555 l -33.53,-14 c -1.24,3.227 -2.8,6.156 -4.67,8.801 -1.89,2.648 -4.04,4.922 -6.52,6.828 -2.46,1.906 -5.21,3.367 -8.28,4.395 -3.05,1.027 -6.35,1.535 -9.94,1.535 -5.81,0 -10.9,-1.254 -15.32,-3.782 -4.39,-2.523 -8.08,-5.816 -11.03,-9.89 -2.97,-4.086 -5.2,-8.684 -6.69,-13.785 -1.5,-5.106 -2.25,-10.235 -2.25,-15.407 0,-5.277 0.77,-10.453 2.32,-15.535 1.57,-5.062 3.85,-9.613 6.88,-13.636 3.02,-4.02 6.78,-7.247 11.26,-9.684 4.49,-2.441 9.64,-3.656 15.45,-3.656 3.81,0 7.37,0.496 10.69,1.504 3.31,1 6.22,2.484 8.72,4.441 2.49,1.965 4.53,4.418 6.11,7.359 1.59,2.926 2.56,6.364 2.91,10.282 h -28.86 v 27.734 h 70.14"
         style="fill:#1c2a4f;fill-opacity:1;fill-rule:nonzero;stroke:none"
         id="path52" />
      <path
         d="m 2469.89,289.781 h 3.42 c 2.88,0 5.79,0.196 8.72,0.574 2.94,0.383 5.57,1.18 7.93,2.379 2.34,1.211 4.24,2.907 5.71,5.11 1.46,2.191 2.2,5.14 2.2,8.847 0,3.692 -0.74,6.653 -2.2,8.887 -1.47,2.231 -3.37,3.949 -5.71,5.156 -2.36,1.2 -4.99,1.985 -7.93,2.371 -2.93,0.383 -5.84,0.563 -8.72,0.563 h -3.42 z m 77.71,-74.992 h -44.01 l -33.26,52.281 h -0.44 v -52.281 h -35.31 v 135.91 h 52.82 c 6.69,0 12.92,-0.82 18.7,-2.472 5.78,-1.645 10.79,-4.161 15.01,-7.571 4.23,-3.398 7.54,-7.73 9.94,-12.968 2.41,-5.254 3.61,-11.516 3.61,-18.79 0,-4.707 -0.64,-9.171 -1.93,-13.433 -1.3,-4.262 -3.21,-8.082 -5.73,-11.481 -2.52,-3.414 -5.63,-6.285 -9.33,-8.636 -3.69,-2.348 -7.95,-3.961 -12.75,-4.84 l 42.68,-55.719"
         style="fill:#1c2a4f;fill-opacity:1;fill-rule:nonzero;stroke:none"
         id="path54" />
      <path
         d="m 2613.58,214.805 h -35.3 v 135.894 h 35.3 V 214.805"
         style="fill:#1c2a4f;fill-opacity:1;fill-rule:nonzero;stroke:none"
         id="path56" />
      <path
         d="m 2751.39,305.102 c -1.82,2.468 -3.89,4.625 -6.21,6.472 -2.31,1.856 -4.81,3.399 -7.49,4.668 -2.66,1.254 -5.46,2.207 -8.4,2.856 -2.93,0.644 -5.89,0.972 -8.88,0.972 -5.4,0 -10.34,-0.972 -14.8,-2.906 -4.46,-1.93 -8.28,-4.613 -11.44,-8.012 -3.17,-3.402 -5.63,-7.394 -7.39,-11.968 -1.76,-4.575 -2.63,-9.512 -2.63,-14.789 0,-5.403 0.87,-10.36 2.63,-14.875 1.76,-4.52 4.25,-8.415 7.47,-11.665 3.24,-3.253 7.11,-5.812 11.62,-7.656 4.54,-1.84 9.54,-2.765 15.06,-2.765 2.87,0 5.74,0.328 8.58,1.004 2.85,0.675 5.57,1.644 8.18,2.902 2.62,1.265 5.09,2.781 7.4,4.539 2.31,1.758 4.42,3.754 6.3,5.984 v -42.34 c -2.94,-0.871 -5.69,-1.71 -8.28,-2.511 -2.58,-0.782 -5.11,-1.465 -7.57,-2.02 -2.47,-0.566 -4.94,-1 -7.44,-1.32 -2.49,-0.328 -5.12,-0.488 -7.87,-0.488 -9.5,0 -18.62,1.738 -27.33,5.199 -8.72,3.457 -16.63,8.383 -23.72,14.789 -7.51,6.801 -13.03,14.535 -16.55,23.187 -3.52,8.649 -5.28,18.063 -5.28,28.204 0,9.335 1.7,18.281 5.11,26.851 3.39,8.57 8.38,16.195 14.96,22.883 3.34,3.402 7.01,6.469 10.99,9.203 4,2.723 8.21,5.047 12.64,6.961 4.44,1.894 9.01,3.355 13.77,4.348 4.76,1 9.5,1.5 14.27,1.5 5.69,0 11.17,-0.606 16.45,-1.813 5.28,-1.203 10.57,-2.883 15.85,-5.062 v -42.332"
         style="fill:#1c2a4f;fill-opacity:1;fill-rule:nonzero;stroke:none"
         id="path58" />
      <path
         d="m 2911.44,350.699 v -76.398 c 0,-4.403 -0.1,-8.75 -0.31,-13.028 -0.2,-4.289 -0.77,-8.46 -1.71,-12.55 -0.94,-4.075 -2.36,-8.016 -4.28,-11.797 -1.9,-3.781 -4.52,-7.317 -7.87,-10.594 -2.82,-2.82 -6.02,-5.184 -9.59,-7.09 -3.58,-1.91 -7.34,-3.461 -11.27,-4.66 -3.94,-1.207 -7.97,-2.078 -12.12,-2.609 -4.12,-0.516 -8.16,-0.782 -12.09,-0.782 -3.99,0 -8.05,0.266 -12.2,0.782 -4.13,0.531 -8.14,1.402 -12.06,2.609 -3.89,1.199 -7.63,2.75 -11.21,4.66 -3.57,1.906 -6.78,4.27 -9.6,7.09 -3.39,3.277 -6.05,6.813 -7.96,10.594 -1.91,3.781 -3.33,7.722 -4.26,11.797 -0.94,4.09 -1.53,8.261 -1.71,12.55 -0.22,4.278 -0.32,8.625 -0.32,13.028 v 76.398 h 35.3 v -71.558 c 0,-2.93 0.07,-5.907 0.22,-8.887 0.13,-3.008 0.46,-5.856 0.96,-8.594 0.5,-2.715 1.26,-5.281 2.29,-7.652 1.03,-2.383 2.43,-4.442 4.22,-6.199 1.8,-1.762 4.01,-3.145 6.64,-4.145 2.65,-0.996 5.87,-1.492 9.69,-1.492 3.76,0 6.97,0.496 9.64,1.492 2.67,1 4.89,2.383 6.65,4.145 1.76,1.757 3.15,3.816 4.17,6.199 1.04,2.371 1.82,4.937 2.34,7.652 0.52,2.738 0.84,5.586 0.96,8.594 0.12,2.98 0.19,5.957 0.19,8.887 v 71.558 h 35.29"
         style="fill:#1c2a4f;fill-opacity:1;fill-rule:nonzero;stroke:none"
         id="path60" />
      <path
         d="m 2990.37,244.719 h 42.42 v -29.93 h -77.73 v 135.91 h 35.31 v -105.98"
         style="fill:#1c2a4f;fill-opacity:1;fill-rule:nonzero;stroke:none"
         id="path62" />
      <path
         d="m 3108.99,214.789 h -35.29 v 105.973 h -29.22 v 29.937 h 93.75 v -29.937 h -29.24 V 214.789"
         style="fill:#1c2a4f;fill-opacity:1;fill-rule:nonzero;stroke:none"
         id="path64" />
      <path
         d="m 3288.57,350.699 v -76.398 c 0,-4.403 -0.1,-8.75 -0.31,-13.028 -0.2,-4.289 -0.77,-8.46 -1.7,-12.55 -0.95,-4.075 -2.37,-8.016 -4.28,-11.797 -1.91,-3.781 -4.52,-7.317 -7.86,-10.594 -2.83,-2.82 -6.04,-5.184 -9.6,-7.09 -3.59,-1.91 -7.35,-3.461 -11.28,-4.66 -3.94,-1.207 -7.96,-2.078 -12.11,-2.609 -4.12,-0.516 -8.17,-0.782 -12.09,-0.782 -3.98,0 -8.06,0.266 -12.2,0.782 -4.14,0.531 -8.15,1.402 -12.05,2.609 -3.9,1.199 -7.64,2.75 -11.22,4.66 -3.58,1.906 -6.78,4.27 -9.59,7.09 -3.41,3.277 -6.07,6.813 -7.97,10.594 -1.91,3.781 -3.34,7.722 -4.27,11.797 -0.94,4.09 -1.52,8.261 -1.71,12.55 -0.22,4.278 -0.32,8.625 -0.32,13.028 v 76.398 h 35.3 v -71.558 c 0,-2.93 0.07,-5.907 0.22,-8.887 0.14,-3.008 0.47,-5.856 0.97,-8.594 0.5,-2.715 1.25,-5.281 2.29,-7.652 1.03,-2.383 2.43,-4.442 4.21,-6.199 1.8,-1.762 4.02,-3.145 6.65,-4.145 2.64,-0.996 5.87,-1.492 9.69,-1.492 3.75,0 6.97,0.496 9.64,1.492 2.67,1 4.88,2.383 6.65,4.145 1.76,1.757 3.13,3.816 4.18,6.199 1.02,2.371 1.8,4.937 2.31,7.652 0.54,2.738 0.86,5.586 0.98,8.594 0.12,2.98 0.18,5.957 0.18,8.887 v 71.558 h 35.29"
         style="fill:#1c2a4f;fill-opacity:1;fill-rule:nonzero;stroke:none"
         id="path66" />
      <path
         d="m 3367.5,289.781 h 3.42 c 2.88,0 5.79,0.196 8.71,0.574 2.94,0.383 5.59,1.18 7.94,2.379 2.35,1.211 4.25,2.907 5.73,5.11 1.46,2.191 2.18,5.14 2.18,8.847 0,3.692 -0.72,6.653 -2.18,8.887 -1.48,2.231 -3.38,3.949 -5.73,5.156 -2.35,1.2 -5,1.985 -7.94,2.371 -2.92,0.383 -5.83,0.563 -8.71,0.563 h -3.42 z m 77.72,-74.992 h -44.02 l -33.26,52.281 h -0.44 v -52.281 h -35.3 v 135.91 h 52.8 c 6.69,0 12.93,-0.82 18.72,-2.472 5.78,-1.645 10.79,-4.161 15.01,-7.571 4.21,-3.398 7.53,-7.73 9.94,-12.968 2.4,-5.254 3.6,-11.516 3.6,-18.79 0,-4.707 -0.64,-9.171 -1.93,-13.433 -1.29,-4.262 -3.2,-8.082 -5.72,-11.481 -2.53,-3.414 -5.63,-6.285 -9.33,-8.636 -3.69,-2.348 -7.95,-3.961 -12.76,-4.84 l 42.69,-55.719"
         style="fill:#1c2a4f;fill-opacity:1;fill-rule:nonzero;stroke:none"
         id="path68" />
      <path
         d="m 3541.34,308.707 h -0.33 l -14.63,-43.297 h 29.4 z m -24.72,-70.316 -9.32,-23.586 h -37.51 l 52.29,135.894 h 38.55 l 51.22,-135.894 h -37.67 l -8.88,23.586 h -48.68"
         style="fill:#1c2a4f;fill-opacity:1;fill-rule:nonzero;stroke:none"
         id="path70" />
      <path
         d="m 3678.44,244.719 h 42.42 v -29.93 h -77.72 v 135.91 h 35.3 v -105.98"
         style="fill:#1c2a4f;fill-opacity:1;fill-rule:nonzero;stroke:none"
         id="path72" />
      <path
         d="m 898.895,71.543 h -0.25 l -10.43,-30.918 h 20.996 z M 881.234,21.3281 874.574,4.49219 h -26.777 l 37.34,97.03081 h 27.519 L 949.234,4.49219 h -26.898 l -6.344,16.83591 h -34.758"
         style="fill:#1c2a4f;fill-opacity:1;fill-rule:nonzero;stroke:none"
         id="path74" />
      <path
         d="m 961.566,101.523 h 25.204 l 46.25,-59.3238 h 0.27 v 59.3238 h 25.18 V 4.49219 h -25.18 l -46.2,59.45311 h -0.32 V 4.49219 H 961.566 V 101.523"
         style="fill:#1c2a4f;fill-opacity:1;fill-rule:nonzero;stroke:none"
         id="path76" />
      <path
         d="m 1105.35,25.8516 h 5.73 c 3.76,0 7.34,0.5273 10.71,1.5703 3.37,1.0469 6.33,2.6953 8.86,4.914 2.54,2.2071 4.56,5.0391 6.06,8.4454 1.51,3.4179 2.26,7.4921 2.26,12.2265 0,4.3555 -0.68,8.2344 -2.04,11.6016 -1.36,3.3594 -3.26,6.2031 -5.71,8.4961 -2.46,2.3164 -5.37,4.0625 -8.74,5.2539 -3.37,1.2031 -7.09,1.8086 -11.16,1.8086 h -5.97 z m -25.19,75.6714 h 35.76 c 4.48,0 8.82,-0.566 13.01,-1.6871 4.19,-1.1328 8.11,-2.7461 11.78,-4.8164 3.67,-2.0703 7,-4.5781 10.02,-7.5078 3.02,-2.9414 5.59,-6.2109 7.74,-9.8047 2.12,-3.6132 3.79,-7.4922 4.99,-11.6601 1.2,-4.1602 1.78,-8.5078 1.78,-13.0391 0,-4.5312 -0.58,-8.875 -1.78,-13.0469 -1.2,-4.1601 -2.88,-8.0546 -5.03,-11.6484 -2.16,-3.6055 -4.75,-6.875 -7.77,-9.8047 -3.01,-2.9297 -6.34,-5.4297 -9.98,-7.5117 -3.65,-2.07032 -7.56,-3.67188 -11.75,-4.80469 -4.19,-1.13282 -8.53,-1.69922 -13.01,-1.69922 h -35.76 V 101.523"
         style="fill:#1c2a4f;fill-opacity:1;fill-rule:nonzero;stroke:none"
         id="path78" />
      <path
         d="M 1287.38,110.465 V 87.7539 h 39.87 V 57.8242 h -39.87 V 34.4141 h 42.07 V 4.50391 h -77.37 V 140.395 h 77.37 v -29.93 h -42.07"
         style="fill:#1c2a4f;fill-opacity:1;fill-rule:nonzero;stroke:none"
         id="path80" />
      <path
         d="m 1369.12,140.391 h 35.29 l 64.77,-83.0863 h 0.36 v 83.0863 h 35.3 V 4.49219 h -35.3 l -64.69,83.26171 h -0.44 V 4.49219 h -35.29 V 140.391"
         style="fill:#1c2a4f;fill-opacity:1;fill-rule:nonzero;stroke:none"
         id="path82" />
      <path
         d="m 1602.11,57.8242 33,82.5708 h 38.38 l -58,-135.91062 h -27.47 L 1530.89,140.395 h 38.48 l 32.74,-82.5708"
         style="fill:#1c2a4f;fill-opacity:1;fill-rule:nonzero;stroke:none"
         id="path84" />
      <path
         d="m 1734.95,4.50391 h -35.3 V 140.395 h 35.3 V 4.50391"
         style="fill:#1c2a4f;fill-opacity:1;fill-rule:nonzero;stroke:none"
         id="path86" />
      <path
         d="m 1811.08,79.4727 h 3.43 c 2.88,0 5.78,0.1953 8.71,0.5781 2.94,0.3906 5.57,1.1797 7.93,2.3828 2.33,1.1992 4.25,2.8984 5.71,5.0977 1.47,2.2148 2.21,5.1562 2.21,8.8554 0,3.6913 -0.74,6.6523 -2.21,8.8863 -1.46,2.223 -3.38,3.946 -5.71,5.153 -2.36,1.199 -4.99,1.992 -7.93,2.367 -2.93,0.391 -5.83,0.586 -8.71,0.586 h -3.43 z m 77.71,-74.98051 h -44.01 l -33.27,52.27731 h -0.43 V 4.49219 h -35.3 V 140.391 h 52.81 c 6.69,0 12.93,-0.825 18.7,-2.465 5.79,-1.641 10.79,-4.172 15.01,-7.571 4.23,-3.406 7.53,-7.726 9.94,-12.976 2.4,-5.254 3.61,-11.52 3.61,-18.7931 0,-4.6992 -0.64,-9.1718 -1.93,-13.4296 -1.29,-4.2579 -3.2,-8.0743 -5.73,-11.4727 -2.52,-3.4102 -5.63,-6.2891 -9.33,-8.6445 -3.69,-2.3321 -7.95,-3.9532 -12.75,-4.8321 l 42.68,-55.71481"
         style="fill:#1c2a4f;fill-opacity:1;fill-rule:nonzero;stroke:none"
         id="path88" />
      <path
         d="m 1980.84,110.648 c -5.28,0 -10.23,-0.988 -14.87,-2.953 -4.64,-1.972 -8.7,-4.609 -12.2,-7.9294 -3.48,-3.3086 -6.25,-7.1289 -8.26,-11.4336 -2.03,-4.3164 -3.04,-8.8203 -3.04,-13.5156 0,-5.8594 1.01,-11.2695 3.04,-16.2422 2.01,-4.9492 4.78,-9.2265 8.26,-12.8515 3.5,-3.6133 7.56,-6.4063 12.2,-8.4375 4.64,-2.0313 9.59,-3.0469 14.87,-3.0469 5.28,0 10.26,1.0156 14.93,3.0469 4.65,2.0312 8.72,4.8242 12.18,8.4375 3.48,3.625 6.21,7.9023 8.24,12.8515 2.02,4.9727 3.03,10.3828 3.03,16.2422 0,4.6953 -1.01,9.1992 -3.03,13.5156 -2.03,4.3047 -4.76,8.125 -8.24,11.4336 -3.46,3.3204 -7.53,5.9574 -12.18,7.9294 -4.67,1.965 -9.65,2.953 -14.93,2.953 m 0,34.239 c 6.52,0 12.91,-0.785 19.15,-2.344 6.25,-1.551 12.16,-3.77 17.73,-6.648 5.58,-2.872 10.71,-6.372 15.4,-10.512 4.7,-4.141 8.74,-8.797 12.11,-13.996 3.38,-5.184 6.02,-10.828 7.93,-16.9417 1.9,-6.1055 2.86,-12.5781 2.86,-19.4453 0,-11.043 -1.87,-21.1406 -5.6,-30.3203 -3.73,-9.1914 -8.93,-17.082 -15.61,-23.6836 C 2028.11,14.3867 2020.17,9.25 2010.99,5.54688 2001.8,1.85547 1991.76,0 1980.84,0 c -7.27,0 -14.18,0.832031 -20.73,2.51953 -6.53,1.66016 -12.59,4.05469 -18.13,7.16797 -5.54,3.1055 -10.56,6.875 -15.04,11.3086 -4.49,4.4336 -8.31,9.4336 -11.45,15 -3.13,5.5781 -5.55,11.6406 -7.25,18.1836 -1.71,6.5351 -2.56,13.4766 -2.56,20.8203 0,6.8672 0.96,13.3398 2.85,19.4453 1.91,6.1137 4.57,11.7577 7.98,16.9417 3.4,5.199 7.43,9.855 12.09,13.996 4.67,4.14 9.79,7.64 15.36,10.512 5.58,2.878 11.49,5.097 17.74,6.648 6.25,1.559 12.63,2.344 19.14,2.344"
         style="fill:#1c2a4f;fill-opacity:1;fill-rule:nonzero;stroke:none"
         id="path90" />
      <path
         d="m 2093.56,140.391 h 35.3 l 64.78,-83.0863 h 0.35 v 83.0863 h 35.29 V 4.49219 h -35.29 L 2129.3,87.7539 h -0.44 V 4.49219 h -35.3 V 140.391"
         style="fill:#1c2a4f;fill-opacity:1;fill-rule:nonzero;stroke:none"
         id="path92" />
      <path
         d="m 2284.68,140.391 h 34.77 l 27.63,-72.6176 29.14,72.6176 h 35.21 L 2431.94,4.49219 h -35.29 l -9.96,78.25391 h -0.35 L 2353.69,4.49219 h -14 l -31.25,78.25391 h -0.34 L 2296.74,4.49219 h -35.1 l 23.04,135.89881"
         style="fill:#1c2a4f;fill-opacity:1;fill-rule:nonzero;stroke:none"
         id="path94" />
      <path
         d="M 2500.04,110.465 V 87.7539 h 39.88 V 57.8242 h -39.88 V 34.4141 h 42.06 V 4.50391 h -77.36 V 140.395 h 77.36 v -29.93 h -42.06"
         style="fill:#1c2a4f;fill-opacity:1;fill-rule:nonzero;stroke:none"
         id="path96" />
      <path
         d="m 2581.77,140.391 h 35.31 l 64.77,-83.0863 h 0.34 v 83.0863 h 35.31 V 4.49219 h -35.31 l -64.68,83.26171 h -0.43 V 4.49219 h -35.31 V 140.391"
         style="fill:#1c2a4f;fill-opacity:1;fill-rule:nonzero;stroke:none"
         id="path98" />
      <path
         d="m 2810.5,4.49219 h -35.29 V 110.461 h -29.23 v 29.93 h 93.75 v -29.93 H 2810.5 V 4.49219"
         style="fill:#1c2a4f;fill-opacity:1;fill-rule:nonzero;stroke:none"
         id="path100" />
      <path
         d="m 2918.95,98.4102 h -0.35 l -14.61,-43.3008 h 29.39 z m -24.74,-70.3243 -9.32,-23.59371 h -37.5 l 52.29,135.89881 h 38.55 L 2989.46,4.49219 h -37.68 l -8.88,23.59371 h -48.69"
         style="fill:#1c2a4f;fill-opacity:1;fill-rule:nonzero;stroke:none"
         id="path102" />
      <path
         d="m 3056.03,34.4141 h 42.43 V 4.48438 h -77.73 V 140.395 h 35.3 V 34.4141"
         style="fill:#1c2a4f;fill-opacity:1;fill-rule:nonzero;stroke:none"
         id="path104" />
      <path
         d="m 3282.47,105.449 c -3.3,2.696 -6.93,4.867 -10.91,6.516 -4.01,1.644 -8.17,2.465 -12.51,2.465 -1.65,0 -3.34,-0.246 -5.11,-0.703 -1.75,-0.477 -3.39,-1.188 -4.87,-2.122 -1.51,-0.941 -2.75,-2.121 -3.71,-3.562 -0.96,-1.441 -1.45,-3.09 -1.45,-4.965 0,-1.992 0.53,-3.7108 1.59,-5.1092 1.05,-1.4063 2.38,-2.6055 3.96,-3.6133 1.58,-0.9844 3.28,-1.836 5.1,-2.5078 1.81,-0.6758 3.5,-1.25 5.02,-1.711 l 8.97,-2.7344 c 4.76,-1.414 9.17,-3.0859 13.25,-5.0585 4.07,-1.961 7.63,-4.4141 10.61,-7.3516 3,-2.9297 5.35,-6.4063 7.1,-10.4297 1.71,-4.0156 2.58,-8.7891 2.58,-14.2969 0,-3.3398 -0.21,-6.7109 -0.65,-10.0781 -0.44,-3.3789 -1.21,-6.6406 -2.29,-9.8164 -1.09,-3.1719 -2.54,-6.1797 -4.36,-9.0313 -1.82,-2.8437 -4.09,-5.4023 -6.79,-7.6875 -5.33,-4.53121 -11.35,-7.78121 -18.08,-9.77339 -6.72,-2.00391 -13.55,-3.000004 -20.46,-3.000004 -8.57,0 -16.94,1.367184 -25.08,4.101564 -8.16,2.72656 -15.73,6.52343 -22.71,11.38673 l 15.13,28.5351 c 2.24,-1.9609 4.56,-3.7695 6.95,-5.4687 2.41,-1.6992 4.94,-3.1914 7.56,-4.4922 2.67,-1.2773 5.37,-2.3047 8.2,-3.0273 2.81,-0.7305 5.72,-1.1133 8.72,-1.1133 2.05,0 4.11,0.2734 6.16,0.793 2.04,0.5351 3.89,1.3554 5.49,2.4687 1.63,1.125 2.94,2.5391 3.93,4.2695 1,1.7383 1.49,3.7969 1.49,6.1993 0,2.4726 -0.76,4.5625 -2.29,6.25 -1.52,1.7109 -3.39,3.164 -5.6,4.375 -2.19,1.1914 -4.51,2.1796 -6.99,2.9414 -2.46,0.75 -4.63,1.4062 -6.51,1.9336 -5.58,1.5898 -10.62,3.2421 -15.14,4.9296 -4.51,1.711 -8.36,3.9454 -11.57,6.7305 -3.2,2.7813 -5.68,6.2969 -7.43,10.5156 -1.77,4.2305 -2.66,9.6289 -2.66,16.211 0,6.855 1.16,13.105 3.47,18.746 2.34,5.625 5.59,10.43 9.74,14.383 4.17,3.957 9.11,7.023 14.83,9.203 5.73,2.164 11.99,3.25 18.79,3.25 3.41,0 6.98,-0.266 10.74,-0.793 3.75,-0.527 7.48,-1.277 11.18,-2.238 3.7,-0.969 7.31,-2.145 10.82,-3.531 3.52,-1.379 6.81,-2.915 9.87,-4.622 l -14.08,-27.367"
         style="fill:#1c2a4f;fill-opacity:1;fill-rule:nonzero;stroke:none"
         id="path106" />
      <path
         d="m 3432.67,94.7969 c -1.81,2.4687 -3.9,4.6172 -6.2,6.4651 -2.31,1.855 -4.81,3.406 -7.49,4.676 -2.66,1.261 -5.46,2.199 -8.4,2.855 -2.92,0.645 -5.9,0.969 -8.9,0.969 -5.39,0 -10.31,-0.969 -14.77,-2.907 -4.47,-1.933 -8.29,-4.609 -11.44,-8.0073 -3.18,-3.3985 -5.64,-7.3907 -7.4,-11.9727 -1.76,-4.5781 -2.65,-9.5117 -2.65,-14.7852 0,-5.3984 0.89,-10.3515 2.65,-14.871 1.76,-4.5235 4.24,-8.418 7.47,-11.6719 3.23,-3.25 7.11,-5.8008 11.62,-7.6563 4.52,-1.8359 9.54,-2.7617 15.06,-2.7617 2.87,0 5.73,0.332 8.58,1.0039 2.85,0.6836 5.58,1.6524 8.18,2.9024 2.63,1.2578 5.09,2.7812 7.39,4.539 2.32,1.7578 4.44,3.75 6.3,5.9883 V 7.21875 c -2.94,-0.87891 -5.68,-1.71094 -8.27,-2.51172 -2.58,-0.78125 -5.1,-1.46484 -7.57,-2.01953 -2.46,-0.55859 -4.95,-1.00781 -7.44,-1.32812 -2.49,-0.32422 -5.11,-0.480474 -7.87,-0.480474 -9.52,0 -18.62,1.738284 -27.35,5.195314 -8.7,3.45703 -16.61,8.39848 -23.71,14.79688 -7.51,6.7969 -13.02,14.5312 -16.54,23.1914 -3.52,8.6445 -5.27,18.0586 -5.27,28.2031 0,9.3282 1.69,18.2813 5.09,26.8477 3.4,8.5747 8.39,16.1917 14.97,22.8867 3.34,3.395 7.02,6.473 10.99,9.195 3.99,2.715 8.21,5.047 12.64,6.961 4.44,1.899 9.01,3.352 13.77,4.348 4.76,0.996 9.51,1.496 14.26,1.496 5.7,0 11.19,-0.602 16.46,-1.812 5.28,-1.196 10.58,-2.879 15.84,-5.047 V 94.7969"
         style="fill:#1c2a4f;fill-opacity:1;fill-rule:nonzero;stroke:none"
         id="path108" />
      <path
         d="m 3507.83,4.50391 h -35.31 V 140.395 h 35.31 V 4.50391"
         style="fill:#1c2a4f;fill-opacity:1;fill-rule:nonzero;stroke:none"
         id="path110" />
      <path
         d="M 3583.96,110.465 V 87.7539 h 39.86 V 57.8242 h -39.86 V 34.4141 h 42.07 V 4.50391 h -77.37 V 140.395 h 77.37 v -29.93 h -42.07"
         style="fill:#1c2a4f;fill-opacity:1;fill-rule:nonzero;stroke:none"
         id="path112" />
      <path
         d="m 3669.21,140.391 h 35.3 l 64.79,-83.0863 h 0.33 v 83.0863 h 35.32 V 4.49219 h -35.32 l -64.67,83.26171 h -0.45 V 4.49219 h -35.3 V 140.391"
         style="fill:#1c2a4f;fill-opacity:1;fill-rule:nonzero;stroke:none"
         id="path114" />
      <path
         d="m 3939.23,94.7969 c -1.81,2.4687 -3.89,4.6172 -6.2,6.4651 -2.31,1.855 -4.81,3.406 -7.49,4.676 -2.65,1.261 -5.47,2.199 -8.41,2.855 -2.92,0.645 -5.88,0.969 -8.88,0.969 -5.39,0 -10.33,-0.969 -14.79,-2.907 -4.46,-1.933 -8.28,-4.609 -11.43,-8.0073 -3.18,-3.3985 -5.64,-7.3907 -7.4,-11.9727 -1.76,-4.5781 -2.64,-9.5117 -2.64,-14.7852 0,-5.3984 0.88,-10.3515 2.64,-14.871 1.76,-4.5235 4.24,-8.418 7.47,-11.6719 3.24,-3.25 7.11,-5.8008 11.63,-7.6563 4.53,-1.8359 9.53,-2.7617 15.05,-2.7617 2.88,0 5.73,0.332 8.58,1.0039 2.84,0.6836 5.57,1.6524 8.18,2.9024 2.62,1.2578 5.09,2.7812 7.39,4.539 2.32,1.7578 4.43,3.75 6.3,5.9883 V 7.21875 c -2.95,-0.87891 -5.69,-1.71094 -8.28,-2.51172 -2.58,-0.78125 -5.1,-1.46484 -7.56,-2.01953 -2.46,-0.55859 -4.95,-1.00781 -7.45,-1.32812 -2.49,-0.32422 -5.11,-0.480474 -7.86,-0.480474 -9.52,0 -18.63,1.738284 -27.34,5.195314 -8.71,3.45703 -16.62,8.39848 -23.71,14.79688 -7.52,6.7969 -13.04,14.5312 -16.56,23.1914 -3.52,8.6445 -5.27,18.0586 -5.27,28.2031 0,9.3282 1.69,18.2813 5.09,26.8477 3.41,8.5747 8.41,16.1917 14.97,22.8867 3.35,3.395 7.02,6.473 10.99,9.195 4,2.715 8.21,5.047 12.64,6.961 4.44,1.899 9.03,3.352 13.79,4.348 4.75,0.996 9.49,1.496 14.26,1.496 5.68,0 11.17,-0.602 16.45,-1.812 5.29,-1.196 10.57,-2.879 15.84,-5.047 V 94.7969"
         style="fill:#1c2a4f;fill-opacity:1;fill-rule:nonzero;stroke:none"
         id="path116" />
      <path
         d="M 4014.26,110.465 V 87.7539 h 39.88 V 57.8242 h -39.88 V 34.4141 h 42.06 V 4.50391 h -77.36 V 140.395 h 77.36 v -29.93 h -42.06"
         style="fill:#1c2a4f;fill-opacity:1;fill-rule:nonzero;stroke:none"
         id="path118" />
      <path
         d="m 4168.61,105.449 c -3.29,2.696 -6.93,4.867 -10.92,6.516 -3.99,1.644 -8.14,2.465 -12.49,2.465 -1.65,0 -3.35,-0.246 -5.11,-0.703 -1.76,-0.477 -3.39,-1.188 -4.88,-2.122 -1.49,-0.941 -2.74,-2.121 -3.71,-3.562 -0.96,-1.441 -1.45,-3.09 -1.45,-4.965 0,-1.992 0.53,-3.7108 1.6,-5.1092 1.05,-1.4063 2.36,-2.6055 3.96,-3.6133 1.57,-0.9844 3.27,-1.836 5.09,-2.5078 1.82,-0.6758 3.49,-1.25 5.03,-1.711 l 8.96,-2.7344 c 4.76,-1.414 9.18,-3.0859 13.26,-5.0585 4.08,-1.961 7.62,-4.4141 10.6,-7.3516 3,-2.9297 5.36,-6.4063 7.08,-10.4297 1.74,-4.0156 2.61,-8.7891 2.61,-14.2969 0,-3.3398 -0.23,-6.7109 -0.67,-10.0781 -0.43,-3.3789 -1.2,-6.6406 -2.28,-9.8164 -1.1,-3.1719 -2.54,-6.1797 -4.36,-9.0313 -1.82,-2.8437 -4.08,-5.4023 -6.77,-7.6875 -5.35,-4.53121 -11.37,-7.78121 -18.1,-9.77339 -6.71,-2.00391 -13.54,-3.000004 -20.45,-3.000004 -8.57,0 -16.94,1.367184 -25.09,4.101564 -8.15,2.72656 -15.73,6.52343 -22.7,11.38673 l 15.13,28.5351 c 2.23,-1.9609 4.54,-3.7695 6.95,-5.4687 2.4,-1.6992 4.93,-3.1914 7.57,-4.4922 2.65,-1.2773 5.37,-2.3047 8.19,-3.0273 2.81,-0.7305 5.71,-1.1133 8.71,-1.1133 2.05,0 4.11,0.2734 6.16,0.793 2.05,0.5351 3.89,1.3554 5.5,2.4687 1.62,1.125 2.91,2.5391 3.92,4.2695 0.99,1.7383 1.5,3.7969 1.5,6.1993 0,2.4726 -0.76,4.5625 -2.29,6.25 -1.53,1.7109 -3.39,3.164 -5.6,4.375 -2.19,1.1914 -4.52,2.1796 -6.98,2.9414 -2.46,0.75 -4.65,1.4062 -6.53,1.9336 -5.57,1.5898 -10.62,3.2421 -15.13,4.9296 -4.53,1.711 -8.39,3.9454 -11.57,6.7305 -3.22,2.7813 -5.69,6.2969 -7.46,10.5156 -1.74,4.2305 -2.62,9.6289 -2.62,16.211 0,6.855 1.15,13.105 3.46,18.746 2.33,5.625 5.58,10.43 9.74,14.383 4.17,3.957 9.1,7.023 14.82,9.203 5.74,2.164 12,3.25 18.8,3.25 3.4,0 6.98,-0.266 10.74,-0.793 3.75,-0.527 7.48,-1.277 11.18,-2.238 3.69,-0.969 7.31,-2.145 10.82,-3.531 3.51,-1.379 6.8,-2.915 9.86,-4.622 l -14.08,-27.367"
         style="fill:#1c2a4f;fill-opacity:1;fill-rule:nonzero;stroke:none"
         id="path120" />
    </g>
  </g>
</svg>
